<?xml version="1.0" encoding="UTF-8"?>
<svg id="Layer_2" data-name="Layer 2" xmlns="http://www.w3.org/2000/svg" viewBox="0 0 755.09 405.33">
  <defs>
    <style>
      .cls-1 {
        fill: #020202;
      }

      .cls-1, .cls-2, .cls-3 {
        stroke-width: 0px;
      }

      .cls-3 {
        fill: none;
      }
    </style>
  </defs>
  <g id="Layer_1-2" data-name="Layer 1">
    <g>
      <polygon class="cls-2" points="755.09 0 0 0 0 59.18 175.68 59.18 175.68 400.56 234.87 400.56 234.87 59.18 755.09 59.18 755.09 0"/>
      <polygon class="cls-3" points="400.4 201.49 400.4 253.9 450.15 253.9 423.81 201.49 400.4 201.49"/>
      <path class="cls-3" d="m441.24,172.06c4.05-3.75,6.07-8.93,6.07-15.52s-1.91-12.01-5.73-15.86c-3.82-3.85-9.68-5.78-17.58-5.78h-23.6v42.8h23.7c7.38,0,13.09-1.88,17.14-5.63Z"/>
      <polygon class="cls-3" points="556.51 147.14 521.32 253.9 592 253.9 574.42 200.51 556.51 147.14"/>
      <rect class="cls-3" x="313.36" y="261.79" width="57.29" height="58.41"/>
      <path class="cls-3" d="m713.67,174.89c4.08-3.66,6.12-8.88,6.12-15.67s-2.06-12.63-6.17-16.94c-4.11-4.31-9.79-6.53-17.04-6.66h-26.93v44.75h26.25c7.77,0,13.69-1.83,17.78-5.48Z"/>
      <path class="cls-2" d="m400.4,201.49h23.4l26.35,52.41h31.65l-30.57-59.85c8.55-3.85,14.94-9.03,19.15-15.52,4.21-6.5,6.32-14.61,6.32-24.34,0-13.71-4.57-24.32-13.71-31.83-9.14-7.51-24.19-10.23-41.03-10.23h-51.49v141.77h29.95v-52.41Zm0-66.59h23.6c7.9,0,13.76,1.93,17.58,5.78,3.82,3.85,5.73,9.14,5.73,15.86s-2.02,11.77-6.07,15.52c-4.05,3.75-9.76,5.63-17.14,5.63h-23.7v-42.8Z"/>
      <polygon class="cls-2" points="370.65 320.2 313.36 320.2 313.36 261.79 283.98 261.79 283.98 405 313.36 405 313.36 343.9 370.65 343.9 370.65 405 400.03 405 400.03 261.79 370.65 261.79 370.65 320.2"/>
      <polygon class="cls-2" points="593.69 405 676.2 405 676.2 381.4 623.07 381.4 623.07 261.79 593.69 261.79 593.69 405"/>
      <polygon class="cls-3" points="574.43 200.51 556.51 147.14 574.42 200.51 574.43 200.51"/>
      <polygon class="cls-2" points="556.51 147.14 574.43 200.51 574.42 200.51 592 253.9 623.21 253.9 570.12 112.13 542.9 112.13 490.11 253.9 521.32 253.9 556.51 147.14"/>
      <g>
        <path class="cls-3" d="m713.67,174.89c4.08-3.66,6.12-8.88,6.12-15.67s-2.06-12.63-6.17-16.94c-4.11-4.31-9.79-6.53-17.04-6.66h-26.93v44.75h26.25c7.77,0,13.69-1.83,17.78-5.48Z"/>
        <rect class="cls-3" x="639.81" y="253.9" width="29.84" height=".51"/>
        <path class="cls-2" d="m669.65,204.17h25.76c16.91,0,30.15-4.03,39.71-12.09,9.56-8.06,14.35-19.08,14.35-33.05,0-9.21-2.19-17.42-6.56-24.63-4.37-7.21-10.63-12.78-18.75-16.7-8.13-3.92-17.55-5.88-28.25-5.88h-56.09v142.07h29.84v-49.73Zm0-68.55h26.93c7.25.13,12.93,2.35,17.04,6.66,4.11,4.31,6.17,9.96,6.17,16.94s-2.04,12.01-6.12,15.67c-4.08,3.66-10.01,5.48-17.78,5.48h-26.25v-44.75Z"/>
        <polygon class="cls-2" points="639.83 285.91 682.92 285.91 682.92 404.7 712.3 404.7 712.3 285.91 748.97 285.91 748.97 261.79 639.83 261.79 639.83 285.91"/>
      </g>
      <path class="cls-1" d="m494.85,405.33c-39.41,0-71.47-32.06-71.47-71.47s32.06-71.47,71.47-71.47,71.47,32.06,71.47,71.47-32.06,71.47-71.47,71.47Zm0-119.11c-26.27,0-47.64,21.37-47.64,47.64s21.37,47.64,47.64,47.64,47.64-21.37,47.64-47.64-21.37-47.64-47.64-47.64Z"/>
    </g>
  </g>
</svg>